M48
; DRILL file {KiCad 8.0.1} date 2024-04-03T23:35:26-0300
; FORMAT={-:-/ absolute / metric / decimal}
; #@! TF.CreationDate,2024-04-03T23:35:26-03:00
; #@! TF.GenerationSoftware,Kicad,Pcbnew,8.0.1
; #@! TF.FileFunction,Plated,1,4,PTH
FMAT,2
METRIC
; #@! TA.AperFunction,Plated,PTH,ViaDrill
T1C0.300
; #@! TA.AperFunction,Plated,PTH,ComponentDrill
T2C0.711
; #@! TA.AperFunction,Plated,PTH,ComponentDrill
T3C0.800
; #@! TA.AperFunction,Plated,PTH,ComponentDrill
T4C1.000
%
G90
G05
T1
X32.5Y-125.9
X36.698Y-139.046
X37.0Y-114.5
X39.145Y-138.732
X39.937Y-132.694
X41.4Y-114.5
X42.08Y-127.977
X44.553Y-132.694
X45.9Y-120.9
X46.1Y-61.7
X46.5Y-84.5
X46.5Y-89.6
X46.6Y-77.5
X46.6Y-97.573
X46.9Y-132.694
X47.238Y-136.369
X48.4Y-101.6
X48.695Y-107.329
X50.1Y-120.5
X50.1Y-124.938
X51.091Y-135.289
X53.2Y-77.7
X53.4Y-101.6
X53.758Y-103.032
X54.985Y-100.029
X58.4Y-77.7
X58.764Y-90.522
X59.4Y-114.6
X61.718Y-132.135
X62.51Y-116.314
X62.682Y-124.139
X63.6Y-77.8
X63.6Y-101.6
X64.476Y-140.051
X65.389Y-138.127
X68.6Y-77.8
X68.8Y-85.8
X68.8Y-88.3
X71.1Y-101.5
X71.3Y-95.4
X72.946Y-124.385
X73.097Y-87.478
X73.2Y-114.6
X78.614Y-94.977
X83.26Y-139.394
X83.4Y-68.2
X83.453Y-106.084
X86.876Y-89.69
X96.835Y-111.429
X97.4Y-119.7
X100.369Y-90.367
X102.0Y-119.7
X102.066Y-91.045
X103.8Y-67.6
X103.8Y-70.6
X103.8Y-73.6
X103.8Y-76.7
X103.8Y-79.7
X103.8Y-82.8
X103.8Y-85.8
X103.8Y-88.8
X107.137Y-89.375
X109.3Y-128.5
X118.4Y-128.5
T2
X37.0Y-68.04
X37.0Y-70.58
X37.0Y-73.12
X37.0Y-75.66
X37.0Y-78.2
X37.0Y-80.74
X37.0Y-83.28
X37.0Y-85.82
X37.0Y-88.36
X37.0Y-90.9
X37.0Y-93.44
X37.0Y-95.98
X37.0Y-98.52
X37.0Y-101.06
X37.0Y-103.6
X37.0Y-106.14
X37.0Y-108.68
X39.54Y-68.04
X39.54Y-70.58
X39.54Y-73.12
X39.54Y-75.66
X39.54Y-78.2
X39.54Y-80.74
X39.54Y-83.28
X39.54Y-85.82
X39.54Y-88.36
X39.54Y-90.9
X39.54Y-93.44
X39.54Y-95.98
X39.54Y-98.52
X39.54Y-101.06
X39.54Y-103.6
X39.54Y-106.14
X39.54Y-108.68
X39.54Y-111.22
X42.08Y-68.04
X42.08Y-70.58
X42.08Y-73.12
X42.08Y-75.66
X42.08Y-78.2
X42.08Y-80.74
X42.08Y-83.28
X42.08Y-85.82
X42.08Y-88.36
X42.08Y-90.9
X42.08Y-93.44
X42.08Y-95.98
X42.08Y-98.52
X42.08Y-101.06
X42.08Y-103.6
X42.08Y-106.14
X42.08Y-108.68
X42.08Y-111.22
X44.62Y-68.04
X44.62Y-70.58
X44.62Y-73.12
X44.62Y-106.14
X44.62Y-108.68
X44.62Y-111.22
X47.16Y-68.04
X47.16Y-70.58
X47.16Y-73.12
X47.16Y-106.14
X47.16Y-108.68
X47.16Y-111.22
X49.7Y-68.04
X49.7Y-70.58
X49.7Y-73.12
X49.7Y-106.14
X49.7Y-108.68
X49.7Y-111.22
X52.24Y-68.04
X52.24Y-70.58
X52.24Y-73.12
X52.24Y-106.14
X52.24Y-108.68
X52.24Y-111.22
X54.78Y-68.04
X54.78Y-70.58
X54.78Y-73.12
X54.78Y-106.14
X54.78Y-108.68
X54.78Y-111.22
X57.32Y-68.04
X57.32Y-70.58
X57.32Y-73.12
X57.32Y-106.14
X57.32Y-108.68
X57.32Y-111.22
X59.86Y-68.04
X59.86Y-70.58
X59.86Y-73.12
X59.86Y-106.14
X59.86Y-108.68
X59.86Y-111.22
X62.4Y-68.04
X62.4Y-70.58
X62.4Y-73.12
X62.4Y-106.14
X62.4Y-108.68
X62.4Y-111.22
X64.94Y-68.04
X64.94Y-70.58
X64.94Y-73.12
X64.94Y-106.14
X64.94Y-108.68
X64.94Y-111.22
X67.48Y-68.04
X67.48Y-70.58
X67.48Y-73.12
X67.48Y-106.14
X67.48Y-108.68
X67.48Y-111.22
X70.02Y-68.04
X70.02Y-70.58
X70.02Y-73.12
X70.02Y-106.14
X70.02Y-108.68
X70.02Y-111.22
X72.56Y-68.04
X72.56Y-70.58
X72.56Y-73.12
X72.56Y-106.14
X72.56Y-108.68
X72.56Y-111.22
X75.1Y-68.04
X75.1Y-70.58
X75.1Y-73.12
X75.1Y-75.66
X75.1Y-78.2
X75.1Y-80.74
X75.1Y-83.28
X75.1Y-85.82
X75.1Y-88.36
X75.1Y-90.9
X75.1Y-93.44
X75.1Y-95.98
X75.1Y-98.52
X75.1Y-101.06
X75.1Y-103.6
X75.1Y-106.14
X75.1Y-108.68
X75.1Y-111.22
X77.64Y-68.04
X77.64Y-70.58
X77.64Y-73.12
X77.64Y-75.66
X77.64Y-78.2
X77.64Y-80.74
X77.64Y-83.28
X77.64Y-85.82
X77.64Y-88.36
X77.64Y-90.9
X77.64Y-93.44
X77.64Y-95.98
X77.64Y-98.52
X77.64Y-101.06
X77.64Y-103.6
X77.64Y-106.14
X77.64Y-108.68
X77.64Y-111.22
X80.18Y-68.04
X80.18Y-70.58
X80.18Y-73.12
X80.18Y-75.66
X80.18Y-78.2
X80.18Y-80.74
X80.18Y-83.28
X80.18Y-85.82
X80.18Y-88.36
X80.18Y-90.9
X80.18Y-93.44
X80.18Y-95.98
X80.18Y-98.52
X80.18Y-101.06
X80.18Y-103.6
X80.18Y-106.14
X80.18Y-108.68
X80.18Y-111.22
T3
X52.925Y-118.905
X52.925Y-126.525
X55.465Y-118.905
X55.465Y-126.525
X58.005Y-118.905
X58.005Y-126.525
X60.545Y-118.905
X60.545Y-126.525
X63.085Y-118.905
X63.085Y-126.525
X65.625Y-118.905
X65.625Y-126.525
X68.165Y-118.905
X68.165Y-126.525
X70.705Y-118.905
X70.705Y-126.525
X73.245Y-118.905
X73.245Y-126.525
X75.785Y-118.905
X75.785Y-126.525
X78.325Y-118.905
X78.325Y-126.525
X80.865Y-118.905
X80.865Y-126.525
T4
X25.1Y-61.52
X25.1Y-64.06
X25.1Y-66.6
X25.1Y-69.14
X25.1Y-71.68
X25.1Y-74.22
X25.1Y-76.76
X25.1Y-79.3
X25.1Y-81.84
X25.1Y-84.38
X25.1Y-86.92
X25.1Y-89.46
X25.1Y-92.0
X25.1Y-94.54
X25.1Y-97.08
X25.1Y-99.62
X25.1Y-102.16
X25.1Y-104.7
X25.1Y-107.24
X25.1Y-109.78
X25.1Y-112.32
X25.1Y-114.86
X25.1Y-117.4
X25.1Y-119.94
X25.1Y-122.48
X25.1Y-125.02
X25.1Y-127.56
X25.1Y-130.1
X25.1Y-132.64
X25.1Y-135.18
X25.1Y-137.72
X25.1Y-140.26
X35.325Y-53.535
X35.325Y-56.075
X35.76Y-142.86
X35.76Y-145.4
X37.865Y-53.535
X37.865Y-56.075
X38.3Y-142.86
X38.3Y-145.4
X40.405Y-53.535
X40.405Y-56.075
X40.84Y-142.86
X40.84Y-145.4
X42.945Y-53.535
X42.945Y-56.075
X43.38Y-142.86
X43.38Y-145.4
X45.485Y-53.535
X45.485Y-56.075
X45.92Y-142.86
X45.92Y-145.4
X48.025Y-53.535
X48.025Y-56.075
X48.46Y-142.86
X48.46Y-145.4
X50.565Y-53.535
X50.565Y-56.075
X51.0Y-142.86
X51.0Y-145.4
X53.1Y-130.86
X53.1Y-133.4
X53.105Y-53.535
X53.105Y-56.075
X53.54Y-142.86
X53.54Y-145.4
X55.64Y-130.86
X55.64Y-133.4
X55.645Y-53.535
X55.645Y-56.075
X56.08Y-142.86
X56.08Y-145.4
X58.18Y-130.86
X58.18Y-133.4
X58.185Y-53.535
X58.185Y-56.075
X58.62Y-142.86
X58.62Y-145.4
X60.72Y-130.86
X60.72Y-133.4
X60.725Y-53.535
X60.725Y-56.075
X61.16Y-142.86
X61.16Y-145.4
X63.26Y-130.86
X63.26Y-133.4
X63.265Y-53.535
X63.265Y-56.075
X63.7Y-142.86
X63.7Y-145.4
X65.8Y-130.86
X65.8Y-133.4
X65.805Y-53.535
X65.805Y-56.075
X66.24Y-142.86
X66.24Y-145.4
X68.34Y-130.86
X68.34Y-133.4
X68.345Y-53.535
X68.345Y-56.075
X68.78Y-142.86
X68.78Y-145.4
X70.88Y-130.86
X70.88Y-133.4
X70.885Y-53.535
X70.885Y-56.075
X71.32Y-142.86
X71.32Y-145.4
X73.42Y-130.86
X73.42Y-133.4
X73.425Y-53.535
X73.425Y-56.075
X73.86Y-142.86
X73.86Y-145.4
X75.96Y-130.86
X75.96Y-133.4
X75.965Y-53.535
X75.965Y-56.075
X76.4Y-142.86
X76.4Y-145.4
X78.5Y-130.86
X78.5Y-133.4
X78.505Y-53.535
X78.505Y-56.075
X78.94Y-142.86
X78.94Y-145.4
X81.04Y-130.86
X81.04Y-133.4
X81.045Y-53.535
X81.045Y-56.075
X81.48Y-142.86
X81.48Y-145.4
X83.585Y-53.535
X83.585Y-56.075
X84.02Y-142.86
X84.02Y-145.4
X86.125Y-53.535
X86.125Y-56.075
X86.56Y-142.86
X86.56Y-145.4
X87.1Y-95.52
X87.1Y-98.06
X87.1Y-100.6
X87.1Y-103.14
X87.1Y-105.68
X87.1Y-108.22
X87.1Y-110.76
X87.1Y-113.3
X87.1Y-115.84
X87.1Y-118.38
X87.1Y-120.92
X87.1Y-123.46
X87.1Y-126.0
X87.1Y-128.54
X87.1Y-131.08
X87.1Y-133.62
X87.35Y-69.325
X87.35Y-71.865
X87.35Y-74.405
X87.35Y-76.945
X87.35Y-79.485
X87.35Y-82.025
X87.35Y-84.565
X87.35Y-87.105
X88.665Y-53.535
X88.665Y-56.075
X89.1Y-142.86
X89.1Y-145.4
X91.205Y-53.535
X91.205Y-56.075
X91.64Y-142.86
X91.64Y-145.4
X93.745Y-53.535
X93.745Y-56.075
X94.18Y-142.86
X94.18Y-145.4
X94.7Y-111.32
X94.7Y-113.86
X94.7Y-116.4
X96.285Y-53.535
X96.285Y-56.075
X96.72Y-142.86
X96.72Y-145.4
X98.825Y-53.535
X98.825Y-56.075
X99.26Y-142.86
X99.26Y-145.4
X101.365Y-53.535
X101.365Y-56.075
X101.8Y-142.86
X101.8Y-145.4
X103.4Y-111.32
X103.4Y-113.86
X103.4Y-116.4
X103.905Y-53.535
X103.905Y-56.075
X104.34Y-142.86
X104.34Y-145.4
X106.445Y-53.535
X106.445Y-56.075
X106.88Y-142.86
X106.88Y-145.4
X108.985Y-53.535
X108.985Y-56.075
X109.42Y-142.86
X109.42Y-145.4
X111.525Y-53.535
X111.525Y-56.075
X111.96Y-142.86
X111.96Y-145.4
X113.25Y-120.15
X113.25Y-124.65
X114.065Y-53.535
X114.065Y-56.075
X114.5Y-142.86
X114.5Y-145.4
X115.9Y-132.025
X115.9Y-134.565
X116.36Y-68.02
X116.36Y-70.56
X116.36Y-73.1
X116.36Y-75.64
X116.36Y-78.18
X116.36Y-80.72
X116.36Y-83.26
X116.36Y-85.8
X116.36Y-88.34
X116.36Y-90.88
X116.36Y-93.42
X116.36Y-95.96
X116.36Y-98.5
X116.36Y-101.04
X116.36Y-103.58
X116.36Y-106.12
X118.9Y-68.02
X118.9Y-70.56
X118.9Y-73.1
X118.9Y-75.64
X118.9Y-78.18
X118.9Y-80.72
X118.9Y-83.26
X118.9Y-85.8
X118.9Y-88.34
X118.9Y-90.88
X118.9Y-93.42
X118.9Y-95.96
X118.9Y-98.5
X118.9Y-101.04
X118.9Y-103.58
X118.9Y-106.12
X119.75Y-120.15
X119.75Y-124.65
M30
