G04 #@! TF.GenerationSoftware,KiCad,Pcbnew,8.0.1*
G04 #@! TF.CreationDate,2024-04-04T09:57:52-03:00*
G04 #@! TF.ProjectId,Breakout-68040,42726561-6b6f-4757-942d-36383034302e,rev?*
G04 #@! TF.SameCoordinates,Original*
G04 #@! TF.FileFunction,Paste,Top*
G04 #@! TF.FilePolarity,Positive*
%FSLAX46Y46*%
G04 Gerber Fmt 4.6, Leading zero omitted, Abs format (unit mm)*
G04 Created by KiCad (PCBNEW 8.0.1) date 2024-04-04 09:57:52*
%MOMM*%
%LPD*%
G01*
G04 APERTURE LIST*
G04 Aperture macros list*
%AMRoundRect*
0 Rectangle with rounded corners*
0 $1 Rounding radius*
0 $2 $3 $4 $5 $6 $7 $8 $9 X,Y pos of 4 corners*
0 Add a 4 corners polygon primitive as box body*
4,1,4,$2,$3,$4,$5,$6,$7,$8,$9,$2,$3,0*
0 Add four circle primitives for the rounded corners*
1,1,$1+$1,$2,$3*
1,1,$1+$1,$4,$5*
1,1,$1+$1,$6,$7*
1,1,$1+$1,$8,$9*
0 Add four rect primitives between the rounded corners*
20,1,$1+$1,$2,$3,$4,$5,0*
20,1,$1+$1,$4,$5,$6,$7,0*
20,1,$1+$1,$6,$7,$8,$9,0*
20,1,$1+$1,$8,$9,$2,$3,0*%
G04 Aperture macros list end*
%ADD10RoundRect,0.250000X-0.350000X-0.450000X0.350000X-0.450000X0.350000X0.450000X-0.350000X0.450000X0*%
%ADD11RoundRect,0.250000X0.337500X0.475000X-0.337500X0.475000X-0.337500X-0.475000X0.337500X-0.475000X0*%
%ADD12RoundRect,0.250000X-0.475000X0.337500X-0.475000X-0.337500X0.475000X-0.337500X0.475000X0.337500X0*%
%ADD13RoundRect,0.250000X0.475000X-0.337500X0.475000X0.337500X-0.475000X0.337500X-0.475000X-0.337500X0*%
%ADD14RoundRect,0.250000X-0.337500X-0.475000X0.337500X-0.475000X0.337500X0.475000X-0.337500X0.475000X0*%
%ADD15R,0.800000X0.500000*%
%ADD16R,0.800000X0.400000*%
%ADD17RoundRect,0.250000X0.325000X0.450000X-0.325000X0.450000X-0.325000X-0.450000X0.325000X-0.450000X0*%
%ADD18RoundRect,0.237500X0.300000X0.237500X-0.300000X0.237500X-0.300000X-0.237500X0.300000X-0.237500X0*%
%ADD19R,3.000000X1.300000*%
%ADD20RoundRect,0.237500X0.237500X-0.300000X0.237500X0.300000X-0.237500X0.300000X-0.237500X-0.300000X0*%
%ADD21RoundRect,0.150000X-0.875000X-0.150000X0.875000X-0.150000X0.875000X0.150000X-0.875000X0.150000X0*%
%ADD22RoundRect,0.237500X-0.300000X-0.237500X0.300000X-0.237500X0.300000X0.237500X-0.300000X0.237500X0*%
G04 APERTURE END LIST*
D10*
X110800000Y-128500000D03*
X112800000Y-128500000D03*
D11*
X76475000Y-114600000D03*
X74400000Y-114600000D03*
D12*
X54800000Y-75762500D03*
X54800000Y-77837500D03*
X50100000Y-121662500D03*
X50100000Y-123737500D03*
X72500000Y-93362500D03*
X72500000Y-95437500D03*
D13*
X72400000Y-103537500D03*
X72400000Y-101462500D03*
X54800000Y-101400000D03*
X54800000Y-103475000D03*
X47100000Y-103475000D03*
X47100000Y-101400000D03*
D14*
X56000000Y-114600000D03*
X58075000Y-114600000D03*
D11*
X40237500Y-114540000D03*
X38162500Y-114540000D03*
X100737500Y-119700000D03*
X98662500Y-119700000D03*
X72437500Y-85800000D03*
X70362500Y-85800000D03*
D14*
X44600000Y-85800000D03*
X46675000Y-85800000D03*
D13*
X83400000Y-71737500D03*
X83400000Y-69662500D03*
X46100000Y-65037500D03*
X46100000Y-62962500D03*
D12*
X47900000Y-75562500D03*
X47900000Y-77637500D03*
X59900000Y-75800000D03*
X59900000Y-77875000D03*
X65000000Y-75900000D03*
X65000000Y-77975000D03*
X70000000Y-75900000D03*
X70000000Y-77975000D03*
D14*
X44600000Y-88200000D03*
X46675000Y-88200000D03*
D15*
X93400000Y-84300000D03*
D16*
X93400000Y-83500000D03*
X93400000Y-82700000D03*
D15*
X93400000Y-81900000D03*
X95200000Y-81900000D03*
D16*
X95200000Y-82700000D03*
X95200000Y-83500000D03*
D15*
X95200000Y-84300000D03*
X93400000Y-73900000D03*
D16*
X93400000Y-73100000D03*
X93400000Y-72300000D03*
D15*
X93400000Y-71500000D03*
X95200000Y-71500000D03*
D16*
X95200000Y-72300000D03*
X95200000Y-73100000D03*
D15*
X95200000Y-73900000D03*
D17*
X116925000Y-128500000D03*
X114875000Y-128500000D03*
X102075000Y-79720000D03*
X100025000Y-79720000D03*
D18*
X72262500Y-88300000D03*
X70537500Y-88300000D03*
D19*
X34800000Y-120860000D03*
X34800000Y-125940000D03*
X43600000Y-125940000D03*
X43600000Y-120860000D03*
D17*
X102075000Y-88840000D03*
X100025000Y-88840000D03*
X102075000Y-73640000D03*
X100025000Y-73640000D03*
X102075000Y-76680000D03*
X100025000Y-76680000D03*
X102075000Y-67560000D03*
X100025000Y-67560000D03*
X102075000Y-82760000D03*
X100025000Y-82760000D03*
D20*
X64900000Y-103300000D03*
X64900000Y-101575000D03*
D21*
X95050000Y-121955000D03*
X95050000Y-123225000D03*
X95050000Y-124495000D03*
X95050000Y-125765000D03*
X95050000Y-127035000D03*
X95050000Y-128305000D03*
X95050000Y-129575000D03*
X95050000Y-130845000D03*
X104350000Y-130845000D03*
X104350000Y-129575000D03*
X104350000Y-128305000D03*
X104350000Y-127035000D03*
X104350000Y-125765000D03*
X104350000Y-124495000D03*
X104350000Y-123225000D03*
X104350000Y-121955000D03*
D17*
X102075000Y-85800000D03*
X100025000Y-85800000D03*
D22*
X44875000Y-96000000D03*
X46600000Y-96000000D03*
D17*
X102075000Y-70600000D03*
X100025000Y-70600000D03*
M02*
