G04 #@! TF.GenerationSoftware,KiCad,Pcbnew,8.0.1*
G04 #@! TF.CreationDate,2024-04-03T23:34:40-03:00*
G04 #@! TF.ProjectId,Breakout-68040,42726561-6b6f-4757-942d-36383034302e,rev?*
G04 #@! TF.SameCoordinates,Original*
G04 #@! TF.FileFunction,Paste,Top*
G04 #@! TF.FilePolarity,Positive*
%FSLAX46Y46*%
G04 Gerber Fmt 4.6, Leading zero omitted, Abs format (unit mm)*
G04 Created by KiCad (PCBNEW 8.0.1) date 2024-04-03 23:34:40*
%MOMM*%
%LPD*%
G01*
G04 APERTURE LIST*
G04 Aperture macros list*
%AMRoundRect*
0 Rectangle with rounded corners*
0 $1 Rounding radius*
0 $2 $3 $4 $5 $6 $7 $8 $9 X,Y pos of 4 corners*
0 Add a 4 corners polygon primitive as box body*
4,1,4,$2,$3,$4,$5,$6,$7,$8,$9,$2,$3,0*
0 Add four circle primitives for the rounded corners*
1,1,$1+$1,$2,$3*
1,1,$1+$1,$4,$5*
1,1,$1+$1,$6,$7*
1,1,$1+$1,$8,$9*
0 Add four rect primitives between the rounded corners*
20,1,$1+$1,$2,$3,$4,$5,0*
20,1,$1+$1,$4,$5,$6,$7,0*
20,1,$1+$1,$6,$7,$8,$9,0*
20,1,$1+$1,$8,$9,$2,$3,0*%
G04 Aperture macros list end*
%ADD10R,0.800000X0.300000*%
%ADD11RoundRect,0.250000X0.325000X0.450000X-0.325000X0.450000X-0.325000X-0.450000X0.325000X-0.450000X0*%
%ADD12RoundRect,0.237500X-0.237500X0.300000X-0.237500X-0.300000X0.237500X-0.300000X0.237500X0.300000X0*%
%ADD13RoundRect,0.237500X0.237500X-0.300000X0.237500X0.300000X-0.237500X0.300000X-0.237500X-0.300000X0*%
%ADD14RoundRect,0.237500X0.300000X0.237500X-0.300000X0.237500X-0.300000X-0.237500X0.300000X-0.237500X0*%
%ADD15R,3.000000X1.300000*%
%ADD16RoundRect,0.237500X-0.300000X-0.237500X0.300000X-0.237500X0.300000X0.237500X-0.300000X0.237500X0*%
%ADD17RoundRect,0.237500X-0.250000X-0.237500X0.250000X-0.237500X0.250000X0.237500X-0.250000X0.237500X0*%
%ADD18RoundRect,0.237500X0.287500X0.237500X-0.287500X0.237500X-0.287500X-0.237500X0.287500X-0.237500X0*%
%ADD19RoundRect,0.150000X-0.875000X-0.150000X0.875000X-0.150000X0.875000X0.150000X-0.875000X0.150000X0*%
G04 APERTURE END LIST*
D10*
X95075000Y-79950000D03*
X95075000Y-79450000D03*
X95075000Y-78950000D03*
X95075000Y-78450000D03*
X95075000Y-77950000D03*
X95075000Y-77450000D03*
X95075000Y-76950000D03*
X95075000Y-76450000D03*
X93275000Y-76450000D03*
X93275000Y-76950000D03*
X93275000Y-77450000D03*
X93275000Y-77950000D03*
X93275000Y-78450000D03*
X93275000Y-78950000D03*
X93275000Y-79450000D03*
X93275000Y-79950000D03*
D11*
X102075000Y-70600000D03*
X100025000Y-70600000D03*
X102075000Y-85800000D03*
X100025000Y-85800000D03*
X102075000Y-82760000D03*
X100025000Y-82760000D03*
X102075000Y-88840000D03*
X100025000Y-88840000D03*
X102075000Y-67560000D03*
X100025000Y-67560000D03*
X102075000Y-76680000D03*
X100025000Y-76680000D03*
X102075000Y-73640000D03*
X100025000Y-73640000D03*
X102075000Y-79720000D03*
X100025000Y-79720000D03*
D12*
X65000000Y-76075000D03*
X65000000Y-77800000D03*
D13*
X54800000Y-103300000D03*
X54800000Y-101575000D03*
X64900000Y-103300000D03*
X64900000Y-101575000D03*
D12*
X47900000Y-75737500D03*
X47900000Y-77462500D03*
X70000000Y-77800000D03*
X70000000Y-76075000D03*
X54800000Y-75937500D03*
X54800000Y-77662500D03*
D14*
X72262500Y-88300000D03*
X70537500Y-88300000D03*
D13*
X72400000Y-103362500D03*
X72400000Y-101637500D03*
D15*
X34800000Y-120860000D03*
X34800000Y-125940000D03*
X43600000Y-125940000D03*
X43600000Y-120860000D03*
D12*
X50100000Y-121837500D03*
X50100000Y-123562500D03*
D13*
X46100000Y-64862500D03*
X46100000Y-63137500D03*
D16*
X44775000Y-88200000D03*
X46500000Y-88200000D03*
D17*
X110887500Y-128500000D03*
X112712500Y-128500000D03*
D16*
X44775000Y-85800000D03*
X46500000Y-85800000D03*
D12*
X59900000Y-75975000D03*
X59900000Y-77700000D03*
D13*
X47100000Y-103300000D03*
X47100000Y-101575000D03*
D14*
X72262500Y-85800000D03*
X70537500Y-85800000D03*
D18*
X116775000Y-128500000D03*
X115025000Y-128500000D03*
D12*
X72500000Y-93537500D03*
X72500000Y-95262500D03*
D19*
X95050000Y-121955000D03*
X95050000Y-123225000D03*
X95050000Y-124495000D03*
X95050000Y-125765000D03*
X95050000Y-127035000D03*
X95050000Y-128305000D03*
X95050000Y-129575000D03*
X95050000Y-130845000D03*
X104350000Y-130845000D03*
X104350000Y-129575000D03*
X104350000Y-128305000D03*
X104350000Y-127035000D03*
X104350000Y-125765000D03*
X104350000Y-124495000D03*
X104350000Y-123225000D03*
X104350000Y-121955000D03*
D14*
X76300000Y-114600000D03*
X74575000Y-114600000D03*
D16*
X56175000Y-114600000D03*
X57900000Y-114600000D03*
D14*
X100562500Y-119700000D03*
X98837500Y-119700000D03*
D13*
X83400000Y-71562500D03*
X83400000Y-69837500D03*
D16*
X44875000Y-96000000D03*
X46600000Y-96000000D03*
D14*
X40062500Y-114540000D03*
X38337500Y-114540000D03*
M02*
