G04 #@! TF.GenerationSoftware,KiCad,Pcbnew,8.0.1*
G04 #@! TF.CreationDate,2024-04-04T09:57:52-03:00*
G04 #@! TF.ProjectId,Breakout-68040,42726561-6b6f-4757-942d-36383034302e,rev?*
G04 #@! TF.SameCoordinates,Original*
G04 #@! TF.FileFunction,Copper,L4,Bot*
G04 #@! TF.FilePolarity,Positive*
%FSLAX46Y46*%
G04 Gerber Fmt 4.6, Leading zero omitted, Abs format (unit mm)*
G04 Created by KiCad (PCBNEW 8.0.1) date 2024-04-04 09:57:52*
%MOMM*%
%LPD*%
G01*
G04 APERTURE LIST*
G04 #@! TA.AperFunction,ComponentPad*
%ADD10R,1.700000X1.700000*%
G04 #@! TD*
G04 #@! TA.AperFunction,ComponentPad*
%ADD11O,1.700000X1.700000*%
G04 #@! TD*
G04 #@! TA.AperFunction,ComponentPad*
%ADD12C,1.700000*%
G04 #@! TD*
G04 #@! TA.AperFunction,ComponentPad*
%ADD13C,1.270000*%
G04 #@! TD*
G04 #@! TA.AperFunction,ComponentPad*
%ADD14R,1.600000X2.400000*%
G04 #@! TD*
G04 #@! TA.AperFunction,ComponentPad*
%ADD15O,1.600000X2.400000*%
G04 #@! TD*
G04 #@! TA.AperFunction,ViaPad*
%ADD16C,0.700000*%
G04 #@! TD*
G04 #@! TA.AperFunction,Conductor*
%ADD17C,0.250000*%
G04 #@! TD*
G04 #@! TA.AperFunction,Conductor*
%ADD18C,0.500000*%
G04 #@! TD*
G04 APERTURE END LIST*
D10*
X103400000Y-111320000D03*
D11*
X103400000Y-113860000D03*
X103400000Y-116400000D03*
D10*
X113250000Y-120150000D03*
D12*
X119750000Y-120150000D03*
X113250000Y-124650000D03*
X119750000Y-124650000D03*
D10*
X35325000Y-56075000D03*
D11*
X35325000Y-53535000D03*
X37865000Y-56075000D03*
X37865000Y-53535000D03*
X40405000Y-56075000D03*
X40405000Y-53535000D03*
X42945000Y-56075000D03*
X42945000Y-53535000D03*
X45485000Y-56075000D03*
X45485000Y-53535000D03*
X48025000Y-56075000D03*
X48025000Y-53535000D03*
X50565000Y-56075000D03*
X50565000Y-53535000D03*
X53105000Y-56075000D03*
X53105000Y-53535000D03*
X55645000Y-56075000D03*
X55645000Y-53535000D03*
X58185000Y-56075000D03*
X58185000Y-53535000D03*
X60725000Y-56075000D03*
X60725000Y-53535000D03*
X63265000Y-56075000D03*
X63265000Y-53535000D03*
X65805000Y-56075000D03*
X65805000Y-53535000D03*
X68345000Y-56075000D03*
X68345000Y-53535000D03*
X70885000Y-56075000D03*
X70885000Y-53535000D03*
X73425000Y-56075000D03*
X73425000Y-53535000D03*
X75965000Y-56075000D03*
X75965000Y-53535000D03*
X78505000Y-56075000D03*
X78505000Y-53535000D03*
X81045000Y-56075000D03*
X81045000Y-53535000D03*
X83585000Y-56075000D03*
X83585000Y-53535000D03*
X86125000Y-56075000D03*
X86125000Y-53535000D03*
X88665000Y-56075000D03*
X88665000Y-53535000D03*
X91205000Y-56075000D03*
X91205000Y-53535000D03*
X93745000Y-56075000D03*
X93745000Y-53535000D03*
X96285000Y-56075000D03*
X96285000Y-53535000D03*
X98825000Y-56075000D03*
X98825000Y-53535000D03*
X101365000Y-56075000D03*
X101365000Y-53535000D03*
X103905000Y-56075000D03*
X103905000Y-53535000D03*
X106445000Y-56075000D03*
X106445000Y-53535000D03*
X108985000Y-56075000D03*
X108985000Y-53535000D03*
X111525000Y-56075000D03*
X111525000Y-53535000D03*
X114065000Y-56075000D03*
X114065000Y-53535000D03*
D10*
X87100000Y-95520000D03*
D11*
X87100000Y-98060000D03*
X87100000Y-100600000D03*
X87100000Y-103140000D03*
X87100000Y-105680000D03*
X87100000Y-108220000D03*
X87100000Y-110760000D03*
X87100000Y-113300000D03*
X87100000Y-115840000D03*
X87100000Y-118380000D03*
X87100000Y-120920000D03*
X87100000Y-123460000D03*
X87100000Y-126000000D03*
X87100000Y-128540000D03*
X87100000Y-131080000D03*
X87100000Y-133620000D03*
D10*
X94700000Y-111320000D03*
D11*
X94700000Y-113860000D03*
X94700000Y-116400000D03*
D10*
X116360000Y-68020000D03*
D11*
X118900000Y-68020000D03*
X116360000Y-70560000D03*
X118900000Y-70560000D03*
X116360000Y-73100000D03*
X118900000Y-73100000D03*
X116360000Y-75640000D03*
X118900000Y-75640000D03*
X116360000Y-78180000D03*
X118900000Y-78180000D03*
X116360000Y-80720000D03*
X118900000Y-80720000D03*
X116360000Y-83260000D03*
X118900000Y-83260000D03*
X116360000Y-85800000D03*
X118900000Y-85800000D03*
X116360000Y-88340000D03*
X118900000Y-88340000D03*
X116360000Y-90880000D03*
X118900000Y-90880000D03*
X116360000Y-93420000D03*
X118900000Y-93420000D03*
X116360000Y-95960000D03*
X118900000Y-95960000D03*
X116360000Y-98500000D03*
X118900000Y-98500000D03*
X116360000Y-101040000D03*
X118900000Y-101040000D03*
X116360000Y-103580000D03*
X118900000Y-103580000D03*
X116360000Y-106120000D03*
X118900000Y-106120000D03*
D10*
X114500000Y-142860000D03*
D11*
X114500000Y-145400000D03*
X111960000Y-142860000D03*
X111960000Y-145400000D03*
X109420000Y-142860000D03*
X109420000Y-145400000D03*
X106880000Y-142860000D03*
X106880000Y-145400000D03*
X104340000Y-142860000D03*
X104340000Y-145400000D03*
X101800000Y-142860000D03*
X101800000Y-145400000D03*
X99260000Y-142860000D03*
X99260000Y-145400000D03*
X96720000Y-142860000D03*
X96720000Y-145400000D03*
X94180000Y-142860000D03*
X94180000Y-145400000D03*
X91640000Y-142860000D03*
X91640000Y-145400000D03*
X89100000Y-142860000D03*
X89100000Y-145400000D03*
X86560000Y-142860000D03*
X86560000Y-145400000D03*
X84020000Y-142860000D03*
X84020000Y-145400000D03*
X81480000Y-142860000D03*
X81480000Y-145400000D03*
X78940000Y-142860000D03*
X78940000Y-145400000D03*
X76400000Y-142860000D03*
X76400000Y-145400000D03*
X73860000Y-142860000D03*
X73860000Y-145400000D03*
X71320000Y-142860000D03*
X71320000Y-145400000D03*
X68780000Y-142860000D03*
X68780000Y-145400000D03*
X66240000Y-142860000D03*
X66240000Y-145400000D03*
X63700000Y-142860000D03*
X63700000Y-145400000D03*
X61160000Y-142860000D03*
X61160000Y-145400000D03*
X58620000Y-142860000D03*
X58620000Y-145400000D03*
X56080000Y-142860000D03*
X56080000Y-145400000D03*
X53540000Y-142860000D03*
X53540000Y-145400000D03*
X51000000Y-142860000D03*
X51000000Y-145400000D03*
X48460000Y-142860000D03*
X48460000Y-145400000D03*
X45920000Y-142860000D03*
X45920000Y-145400000D03*
X43380000Y-142860000D03*
X43380000Y-145400000D03*
X40840000Y-142860000D03*
X40840000Y-145400000D03*
X38300000Y-142860000D03*
X38300000Y-145400000D03*
X35760000Y-142860000D03*
X35760000Y-145400000D03*
D10*
X25100000Y-140260000D03*
D11*
X25100000Y-137720000D03*
X25100000Y-135180000D03*
X25100000Y-132640000D03*
X25100000Y-130100000D03*
X25100000Y-127560000D03*
X25100000Y-125020000D03*
X25100000Y-122480000D03*
X25100000Y-119940000D03*
X25100000Y-117400000D03*
X25100000Y-114860000D03*
X25100000Y-112320000D03*
X25100000Y-109780000D03*
X25100000Y-107240000D03*
X25100000Y-104700000D03*
X25100000Y-102160000D03*
X25100000Y-99620000D03*
X25100000Y-97080000D03*
X25100000Y-94540000D03*
X25100000Y-92000000D03*
X25100000Y-89460000D03*
X25100000Y-86920000D03*
X25100000Y-84380000D03*
X25100000Y-81840000D03*
X25100000Y-79300000D03*
X25100000Y-76760000D03*
X25100000Y-74220000D03*
X25100000Y-71680000D03*
X25100000Y-69140000D03*
X25100000Y-66600000D03*
X25100000Y-64060000D03*
X25100000Y-61520000D03*
D10*
X53100000Y-133400000D03*
D11*
X53100000Y-130860000D03*
X55640000Y-133400000D03*
X55640000Y-130860000D03*
X58180000Y-133400000D03*
X58180000Y-130860000D03*
X60720000Y-133400000D03*
X60720000Y-130860000D03*
X63260000Y-133400000D03*
X63260000Y-130860000D03*
X65800000Y-133400000D03*
X65800000Y-130860000D03*
X68340000Y-133400000D03*
X68340000Y-130860000D03*
X70880000Y-133400000D03*
X70880000Y-130860000D03*
X73420000Y-133400000D03*
X73420000Y-130860000D03*
X75960000Y-133400000D03*
X75960000Y-130860000D03*
X78500000Y-133400000D03*
X78500000Y-130860000D03*
X81040000Y-133400000D03*
X81040000Y-130860000D03*
D10*
X115900000Y-132025000D03*
D11*
X115900000Y-134565000D03*
D13*
X37000000Y-68040000D03*
X39540000Y-68040000D03*
X42080000Y-68040000D03*
X44620000Y-68040000D03*
X47160000Y-68040000D03*
X49700000Y-68040000D03*
X52240000Y-68040000D03*
X54780000Y-68040000D03*
X57320000Y-68040000D03*
X59860000Y-68040000D03*
X62400000Y-68040000D03*
X64940000Y-68040000D03*
X67480000Y-68040000D03*
X70020000Y-68040000D03*
X72560000Y-68040000D03*
X75100000Y-68040000D03*
X77640000Y-68040000D03*
X80180000Y-68040000D03*
X37000000Y-70580000D03*
X39540000Y-70580000D03*
X42080000Y-70580000D03*
X44620000Y-70580000D03*
X47160000Y-70580000D03*
X49700000Y-70580000D03*
X52240000Y-70580000D03*
X54780000Y-70580000D03*
X57320000Y-70580000D03*
X59860000Y-70580000D03*
X62400000Y-70580000D03*
X64940000Y-70580000D03*
X67480000Y-70580000D03*
X70020000Y-70580000D03*
X72560000Y-70580000D03*
X75100000Y-70580000D03*
X77640000Y-70580000D03*
X80180000Y-70580000D03*
X37000000Y-73120000D03*
X39540000Y-73120000D03*
X42080000Y-73120000D03*
X44620000Y-73120000D03*
X47160000Y-73120000D03*
X49700000Y-73120000D03*
X52240000Y-73120000D03*
X54780000Y-73120000D03*
X57320000Y-73120000D03*
X59860000Y-73120000D03*
X62400000Y-73120000D03*
X64940000Y-73120000D03*
X67480000Y-73120000D03*
X70020000Y-73120000D03*
X72560000Y-73120000D03*
X75100000Y-73120000D03*
X77640000Y-73120000D03*
X80180000Y-73120000D03*
X37000000Y-75660000D03*
X39540000Y-75660000D03*
X42080000Y-75660000D03*
X75100000Y-75660000D03*
X77640000Y-75660000D03*
X80180000Y-75660000D03*
X37000000Y-78200000D03*
X39540000Y-78200000D03*
X42080000Y-78200000D03*
X75100000Y-78200000D03*
X77640000Y-78200000D03*
X80180000Y-78200000D03*
X37000000Y-80740000D03*
X39540000Y-80740000D03*
X42080000Y-80740000D03*
X75100000Y-80740000D03*
X77640000Y-80740000D03*
X80180000Y-80740000D03*
X37000000Y-83280000D03*
X39540000Y-83280000D03*
X42080000Y-83280000D03*
X75100000Y-83280000D03*
X77640000Y-83280000D03*
X80180000Y-83280000D03*
X37000000Y-85820000D03*
X39540000Y-85820000D03*
X42080000Y-85820000D03*
X75100000Y-85820000D03*
X77640000Y-85820000D03*
X80180000Y-85820000D03*
X37000000Y-88360000D03*
X39540000Y-88360000D03*
X42080000Y-88360000D03*
X75100000Y-88360000D03*
X77640000Y-88360000D03*
X80180000Y-88360000D03*
X37000000Y-90900000D03*
X39540000Y-90900000D03*
X42080000Y-90900000D03*
X75100000Y-90900000D03*
X77640000Y-90900000D03*
X80180000Y-90900000D03*
X37000000Y-93440000D03*
X39540000Y-93440000D03*
X42080000Y-93440000D03*
X75100000Y-93440000D03*
X77640000Y-93440000D03*
X80180000Y-93440000D03*
X37000000Y-95980000D03*
X39540000Y-95980000D03*
X42080000Y-95980000D03*
X75100000Y-95980000D03*
X77640000Y-95980000D03*
X80180000Y-95980000D03*
X37000000Y-98520000D03*
X39540000Y-98520000D03*
X42080000Y-98520000D03*
X75100000Y-98520000D03*
X77640000Y-98520000D03*
X80180000Y-98520000D03*
X37000000Y-101060000D03*
X39540000Y-101060000D03*
X42080000Y-101060000D03*
X75100000Y-101060000D03*
X77640000Y-101060000D03*
X80180000Y-101060000D03*
X37000000Y-103600000D03*
X39540000Y-103600000D03*
X42080000Y-103600000D03*
X75100000Y-103600000D03*
X77640000Y-103600000D03*
X80180000Y-103600000D03*
X37000000Y-106140000D03*
X39540000Y-106140000D03*
X42080000Y-106140000D03*
X44620000Y-106140000D03*
X47160000Y-106140000D03*
X49700000Y-106140000D03*
X52240000Y-106140000D03*
X54780000Y-106140000D03*
X57320000Y-106140000D03*
X59860000Y-106140000D03*
X62400000Y-106140000D03*
X64940000Y-106140000D03*
X67480000Y-106140000D03*
X70020000Y-106140000D03*
X72560000Y-106140000D03*
X75100000Y-106140000D03*
X77640000Y-106140000D03*
X80180000Y-106140000D03*
X37000000Y-108680000D03*
X39540000Y-108680000D03*
X42080000Y-108680000D03*
X44620000Y-108680000D03*
X47160000Y-108680000D03*
X49700000Y-108680000D03*
X52240000Y-108680000D03*
X54780000Y-108680000D03*
X57320000Y-108680000D03*
X59860000Y-108680000D03*
X62400000Y-108680000D03*
X64940000Y-108680000D03*
X67480000Y-108680000D03*
X70020000Y-108680000D03*
X72560000Y-108680000D03*
X75100000Y-108680000D03*
X77640000Y-108680000D03*
X80180000Y-108680000D03*
X39540000Y-111220000D03*
X42080000Y-111220000D03*
X44620000Y-111220000D03*
X47160000Y-111220000D03*
X49700000Y-111220000D03*
X52240000Y-111220000D03*
X54780000Y-111220000D03*
X57320000Y-111220000D03*
X59860000Y-111220000D03*
X62400000Y-111220000D03*
X64940000Y-111220000D03*
X67480000Y-111220000D03*
X70020000Y-111220000D03*
X72560000Y-111220000D03*
X75100000Y-111220000D03*
X77640000Y-111220000D03*
X80180000Y-111220000D03*
D10*
X87350000Y-69325000D03*
D11*
X87350000Y-71865000D03*
X87350000Y-74405000D03*
X87350000Y-76945000D03*
X87350000Y-79485000D03*
X87350000Y-82025000D03*
X87350000Y-84565000D03*
X87350000Y-87105000D03*
D14*
X52925000Y-126525000D03*
D15*
X55465000Y-126525000D03*
X58005000Y-126525000D03*
X60545000Y-126525000D03*
X63085000Y-126525000D03*
X65625000Y-126525000D03*
X68165000Y-126525000D03*
X70705000Y-126525000D03*
X73245000Y-126525000D03*
X75785000Y-126525000D03*
X78325000Y-126525000D03*
X80865000Y-126525000D03*
X80865000Y-118905000D03*
X78325000Y-118905000D03*
X75785000Y-118905000D03*
X73245000Y-118905000D03*
X70705000Y-118905000D03*
X68165000Y-118905000D03*
X65625000Y-118905000D03*
X63085000Y-118905000D03*
X60545000Y-118905000D03*
X58005000Y-118905000D03*
X55465000Y-118905000D03*
X52925000Y-118905000D03*
D16*
X68394100Y-92640500D03*
X40428300Y-123863900D03*
X61480600Y-139948300D03*
X98073900Y-110966800D03*
X44497900Y-129892600D03*
X57937600Y-116411500D03*
X102618800Y-92790300D03*
X81782200Y-98609100D03*
X77077000Y-120727600D03*
X57986800Y-137009600D03*
X61723800Y-120932500D03*
X59132200Y-134598600D03*
X53896300Y-136067400D03*
X44375500Y-117543600D03*
X43686500Y-127145600D03*
X40041800Y-138867300D03*
X70693200Y-92968400D03*
X82815200Y-92270200D03*
X84089900Y-106152200D03*
X59351400Y-120574200D03*
X50767500Y-131459500D03*
X32822300Y-108957600D03*
X71300000Y-95400000D03*
X70600000Y-89800000D03*
X63600000Y-77800000D03*
X50100000Y-124937500D03*
X103800000Y-85800000D03*
X103800000Y-73600000D03*
X68600000Y-77800000D03*
X71100000Y-101500000D03*
X73200000Y-114600000D03*
X58400000Y-77700000D03*
X32500000Y-125900000D03*
X46500000Y-89600000D03*
X46500000Y-84500000D03*
X103800000Y-82800000D03*
X83400000Y-68200000D03*
X103800000Y-76700000D03*
X103800000Y-79700000D03*
X53200000Y-77700000D03*
X46100000Y-61700000D03*
X46600000Y-97573100D03*
X103800000Y-67600000D03*
X53400000Y-101600000D03*
X103800000Y-88800000D03*
X103800000Y-70600000D03*
X63600000Y-101600000D03*
X48400000Y-101600000D03*
X46600000Y-77500000D03*
X59400000Y-114600000D03*
X70600000Y-84000000D03*
X37000000Y-114500000D03*
X118400000Y-128500000D03*
X97400000Y-119700000D03*
X109300000Y-128500000D03*
X41400000Y-114500000D03*
X50100000Y-120500000D03*
X102000000Y-119700000D03*
X45900000Y-120900000D03*
D17*
X78132200Y-132223300D02*
X78500000Y-132223300D01*
X77323300Y-131414400D02*
X78132200Y-132223300D01*
X77323300Y-129053400D02*
X77323300Y-131414400D01*
X78325000Y-128051700D02*
X77323300Y-129053400D01*
X78325000Y-126525000D02*
X78325000Y-128051700D01*
X78500000Y-133400000D02*
X78500000Y-132223300D01*
X73052200Y-132223300D02*
X73420000Y-132223300D01*
X72243300Y-131414400D02*
X73052200Y-132223300D01*
X72243300Y-129053400D02*
X72243300Y-131414400D01*
X73245000Y-128051700D02*
X72243300Y-129053400D01*
X73245000Y-126525000D02*
X73245000Y-128051700D01*
X73420000Y-133400000D02*
X73420000Y-132223300D01*
X65625000Y-118905000D02*
X65625000Y-120431700D01*
X65800000Y-130860000D02*
X65800000Y-129683300D01*
X66758000Y-128725300D02*
X65800000Y-129683300D01*
X66758000Y-121564700D02*
X66758000Y-128725300D01*
X65625000Y-120431700D02*
X66758000Y-121564700D01*
X75785000Y-118905000D02*
X75785000Y-120431700D01*
X75960000Y-130860000D02*
X75960000Y-129683300D01*
X76918000Y-128725300D02*
X75960000Y-129683300D01*
X76918000Y-121564700D02*
X76918000Y-128725300D01*
X75785000Y-120431700D02*
X76918000Y-121564700D01*
X60352200Y-132223300D02*
X60720000Y-132223300D01*
X59543300Y-131414400D02*
X60352200Y-132223300D01*
X59543300Y-129053400D02*
X59543300Y-131414400D01*
X60545000Y-128051700D02*
X59543300Y-129053400D01*
X60545000Y-126525000D02*
X60545000Y-128051700D01*
X60720000Y-133400000D02*
X60720000Y-132223300D01*
X70705000Y-118905000D02*
X70705000Y-120431700D01*
X70880000Y-130860000D02*
X70880000Y-129683300D01*
X71838000Y-128725300D02*
X70880000Y-129683300D01*
X71838000Y-121564700D02*
X71838000Y-128725300D01*
X70705000Y-120431700D02*
X71838000Y-121564700D01*
X68165000Y-118905000D02*
X68165000Y-120431700D01*
X69297900Y-121564600D02*
X68165000Y-120431700D01*
X69297900Y-128725400D02*
X69297900Y-121564600D01*
X68340000Y-129683300D02*
X69297900Y-128725400D01*
X68340000Y-130860000D02*
X68340000Y-129683300D01*
X65432200Y-132223300D02*
X65800000Y-132223300D01*
X64623300Y-131414400D02*
X65432200Y-132223300D01*
X64623300Y-129053400D02*
X64623300Y-131414400D01*
X65625000Y-128051700D02*
X64623300Y-129053400D01*
X65625000Y-126525000D02*
X65625000Y-128051700D01*
X65800000Y-133400000D02*
X65800000Y-132223300D01*
X60545000Y-118905000D02*
X60545000Y-120431700D01*
X60720000Y-128963300D02*
X60720000Y-130860000D01*
X61724000Y-127959300D02*
X60720000Y-128963300D01*
X61724000Y-122140200D02*
X61724000Y-127959300D01*
X60545000Y-120961200D02*
X61724000Y-122140200D01*
X60545000Y-120431700D02*
X60545000Y-120961200D01*
X67972200Y-132223300D02*
X68340000Y-132223300D01*
X67163300Y-131414400D02*
X67972200Y-132223300D01*
X67163300Y-129053400D02*
X67163300Y-131414400D01*
X68165000Y-128051700D02*
X67163300Y-129053400D01*
X68165000Y-126525000D02*
X68165000Y-128051700D01*
X68340000Y-133400000D02*
X68340000Y-132223300D01*
X78325000Y-118905000D02*
X78325000Y-120431700D01*
X78500000Y-130860000D02*
X78500000Y-129683300D01*
X79458000Y-128725300D02*
X78500000Y-129683300D01*
X79458000Y-121564700D02*
X79458000Y-128725300D01*
X78325000Y-120431700D02*
X79458000Y-121564700D01*
X70512200Y-132223300D02*
X70880000Y-132223300D01*
X69703300Y-131414400D02*
X70512200Y-132223300D01*
X69703300Y-129053400D02*
X69703300Y-131414400D01*
X70705000Y-128051700D02*
X69703300Y-129053400D01*
X70705000Y-126525000D02*
X70705000Y-128051700D01*
X70880000Y-133400000D02*
X70880000Y-132223300D01*
X52732200Y-132223300D02*
X53100000Y-132223300D01*
X51923300Y-131414400D02*
X52732200Y-132223300D01*
X51923300Y-129053400D02*
X51923300Y-131414400D01*
X52925000Y-128051700D02*
X51923300Y-129053400D01*
X52925000Y-126525000D02*
X52925000Y-128051700D01*
X53100000Y-133400000D02*
X53100000Y-132223300D01*
X55272200Y-132223300D02*
X55640000Y-132223300D01*
X54463300Y-131414400D02*
X55272200Y-132223300D01*
X54463300Y-129053400D02*
X54463300Y-131414400D01*
X55465000Y-128051700D02*
X54463300Y-129053400D01*
X55465000Y-126525000D02*
X55465000Y-128051700D01*
X55640000Y-133400000D02*
X55640000Y-132223300D01*
X57865500Y-132223300D02*
X58180000Y-132223300D01*
X56978400Y-131336200D02*
X57865500Y-132223300D01*
X56978400Y-129078300D02*
X56978400Y-131336200D01*
X58005000Y-128051700D02*
X56978400Y-129078300D01*
X58005000Y-126525000D02*
X58005000Y-128051700D01*
X58180000Y-133400000D02*
X58180000Y-132223300D01*
X69623100Y-91411500D02*
X68394100Y-92640500D01*
X71428700Y-91411500D02*
X69623100Y-91411500D01*
X72921400Y-89918800D02*
X71428700Y-91411500D01*
X75611900Y-89918800D02*
X72921400Y-89918800D01*
X76073800Y-89456900D02*
X75611900Y-89918800D01*
X96633500Y-89456900D02*
X76073800Y-89456900D01*
X113296600Y-106120000D02*
X96633500Y-89456900D01*
X116360000Y-106120000D02*
X113296600Y-106120000D01*
X40428300Y-117951700D02*
X40428300Y-123863900D01*
X47160000Y-111220000D02*
X40428300Y-117951700D01*
X71320000Y-142860000D02*
X70143300Y-142860000D01*
X67599300Y-139948300D02*
X61480600Y-139948300D01*
X70143300Y-142492300D02*
X67599300Y-139948300D01*
X70143300Y-142860000D02*
X70143300Y-142492300D01*
X88977100Y-101870000D02*
X98073900Y-110966800D01*
X86705800Y-101870000D02*
X88977100Y-101870000D01*
X85923300Y-101087500D02*
X86705800Y-101870000D01*
X85923300Y-100314600D02*
X85923300Y-101087500D01*
X80625400Y-95016700D02*
X85923300Y-100314600D01*
X73275900Y-95016700D02*
X80625400Y-95016700D01*
X67369300Y-100923300D02*
X73275900Y-95016700D01*
X51003300Y-100923300D02*
X67369300Y-100923300D01*
X45890000Y-106036600D02*
X51003300Y-100923300D01*
X45890000Y-107410000D02*
X45890000Y-106036600D01*
X44620000Y-108680000D02*
X45890000Y-107410000D01*
X44497900Y-121286400D02*
X44497900Y-129892600D01*
X50682600Y-115101700D02*
X44497900Y-121286400D01*
X50682600Y-109662600D02*
X50682600Y-115101700D01*
X49700000Y-108680000D02*
X50682600Y-109662600D01*
X56283000Y-114756900D02*
X57937600Y-116411500D01*
X56283000Y-106282800D02*
X56283000Y-114756900D01*
X55145700Y-105145500D02*
X56283000Y-106282800D01*
X51818900Y-105145500D02*
X55145700Y-105145500D01*
X51076000Y-105888400D02*
X51818900Y-105145500D01*
X51076000Y-106136200D02*
X51076000Y-105888400D01*
X49841400Y-107370800D02*
X51076000Y-106136200D01*
X48469200Y-107370800D02*
X49841400Y-107370800D01*
X47160000Y-108680000D02*
X48469200Y-107370800D01*
X56080000Y-142860000D02*
X57256700Y-142860000D01*
X57256700Y-143225800D02*
X57256700Y-142860000D01*
X58106200Y-144075300D02*
X57256700Y-143225800D01*
X76917600Y-144075300D02*
X58106200Y-144075300D01*
X77637100Y-143355800D02*
X76917600Y-144075300D01*
X77637100Y-141619500D02*
X77637100Y-143355800D01*
X82497500Y-136759100D02*
X77637100Y-141619500D01*
X82497500Y-117984200D02*
X82497500Y-136759100D01*
X76678300Y-112165000D02*
X82497500Y-117984200D01*
X76678300Y-106344000D02*
X76678300Y-112165000D01*
X75468800Y-105134500D02*
X76678300Y-106344000D01*
X71025500Y-105134500D02*
X75468800Y-105134500D01*
X70020000Y-106140000D02*
X71025500Y-105134500D01*
X55640000Y-130860000D02*
X55640000Y-129683300D01*
X55465000Y-119668300D02*
X55465000Y-120431700D01*
X51000000Y-142860000D02*
X51000000Y-141683300D01*
X55465000Y-119668300D02*
X55465000Y-118905000D01*
X55465000Y-118905000D02*
X55465000Y-117378300D01*
X56598000Y-128725300D02*
X55640000Y-129683300D01*
X56598000Y-121564700D02*
X56598000Y-128725300D01*
X55465000Y-120431700D02*
X56598000Y-121564700D01*
X56844200Y-135839100D02*
X51000000Y-141683300D01*
X56844200Y-132064200D02*
X56844200Y-135839100D01*
X55640000Y-130860000D02*
X56844200Y-132064200D01*
X55756000Y-117087300D02*
X55465000Y-117378300D01*
X55756000Y-110823300D02*
X55756000Y-117087300D01*
X54685100Y-109752400D02*
X55756000Y-110823300D01*
X54468800Y-109752400D02*
X54685100Y-109752400D01*
X53510000Y-108793600D02*
X54468800Y-109752400D01*
X53510000Y-107410000D02*
X53510000Y-108793600D01*
X52240000Y-106140000D02*
X53510000Y-107410000D01*
X61160000Y-142860000D02*
X61160000Y-141683300D01*
X60803900Y-141327200D02*
X61160000Y-141683300D01*
X60803900Y-139668100D02*
X60803900Y-141327200D01*
X61974700Y-138497300D02*
X60803900Y-139668100D01*
X61974700Y-129914300D02*
X61974700Y-138497300D01*
X64442900Y-127446100D02*
X61974700Y-129914300D01*
X64442900Y-118092600D02*
X64442900Y-127446100D01*
X70329800Y-112205700D02*
X64442900Y-118092600D01*
X71574300Y-112205700D02*
X70329800Y-112205700D01*
X72560000Y-111220000D02*
X71574300Y-112205700D01*
X110868500Y-101040000D02*
X102618800Y-92790300D01*
X116360000Y-101040000D02*
X110868500Y-101040000D01*
X43099400Y-109699400D02*
X42080000Y-108680000D01*
X44975000Y-109699400D02*
X43099400Y-109699400D01*
X46031900Y-108642500D02*
X44975000Y-109699400D01*
X46031900Y-108387200D02*
X46031900Y-108642500D01*
X46729800Y-107689300D02*
X46031900Y-108387200D01*
X47044100Y-107689300D02*
X46729800Y-107689300D01*
X48737100Y-105996300D02*
X47044100Y-107689300D01*
X48737100Y-105689100D02*
X48737100Y-105996300D01*
X50474000Y-103952200D02*
X48737100Y-105689100D01*
X65836300Y-103952200D02*
X50474000Y-103952200D01*
X72257000Y-97531500D02*
X65836300Y-103952200D01*
X80704600Y-97531500D02*
X72257000Y-97531500D01*
X81782200Y-98609100D02*
X80704600Y-97531500D01*
X57986800Y-137236500D02*
X53540000Y-141683300D01*
X57986800Y-137009600D02*
X57986800Y-137236500D01*
X53540000Y-142860000D02*
X53540000Y-141683300D01*
X77077000Y-115579700D02*
X77077000Y-120727600D01*
X75100000Y-113602700D02*
X77077000Y-115579700D01*
X75100000Y-111220000D02*
X75100000Y-113602700D01*
X58620000Y-142860000D02*
X58620000Y-141683300D01*
X59132200Y-141171100D02*
X59132200Y-134598600D01*
X58620000Y-141683300D02*
X59132200Y-141171100D01*
X61723800Y-118231900D02*
X61723800Y-120932500D01*
X63562600Y-116393100D02*
X61723800Y-118231900D01*
X63685300Y-116393100D02*
X63562600Y-116393100D01*
X68859900Y-111218500D02*
X63685300Y-116393100D01*
X68859900Y-109840100D02*
X68859900Y-111218500D01*
X70020000Y-108680000D02*
X68859900Y-109840100D01*
X58180000Y-130860000D02*
X58180000Y-129683300D01*
X58005000Y-118905000D02*
X58005000Y-120431700D01*
X48460000Y-142860000D02*
X48460000Y-141683300D01*
X59179400Y-128683900D02*
X58180000Y-129683300D01*
X59179400Y-121606100D02*
X59179400Y-128683900D01*
X58005000Y-120431700D02*
X59179400Y-121606100D01*
X53896300Y-136247000D02*
X53896300Y-136067400D01*
X48460000Y-141683300D02*
X53896300Y-136247000D01*
X43686500Y-118232600D02*
X43686500Y-127145600D01*
X44375500Y-117543600D02*
X43686500Y-118232600D01*
X91640000Y-142860000D02*
X91640000Y-141683300D01*
X91090900Y-141134200D02*
X91640000Y-141683300D01*
X91090900Y-118107100D02*
X91090900Y-141134200D01*
X87553800Y-114570000D02*
X91090900Y-118107100D01*
X86645800Y-114570000D02*
X87553800Y-114570000D01*
X85660500Y-113584700D02*
X86645800Y-114570000D01*
X85660500Y-112489400D02*
X85660500Y-113584700D01*
X85230900Y-112059800D02*
X85660500Y-112489400D01*
X85230900Y-111246800D02*
X85230900Y-112059800D01*
X82961500Y-108977400D02*
X85230900Y-111246800D01*
X82961500Y-102466100D02*
X82961500Y-108977400D01*
X80285400Y-99790000D02*
X82961500Y-102466100D01*
X76370000Y-99790000D02*
X80285400Y-99790000D01*
X75100000Y-98520000D02*
X76370000Y-99790000D01*
X78940000Y-142860000D02*
X78940000Y-144036700D01*
X37000000Y-107262700D02*
X37012100Y-107274700D01*
X37000000Y-106140000D02*
X37000000Y-107262700D01*
X38326700Y-108589400D02*
X38326700Y-114729000D01*
X37012100Y-107274700D02*
X38326700Y-108589400D01*
X34564900Y-109721900D02*
X37012100Y-107274700D01*
X34564900Y-145894600D02*
X34564900Y-109721900D01*
X35278700Y-146608400D02*
X34564900Y-145894600D01*
X76875200Y-146608400D02*
X35278700Y-146608400D01*
X77763300Y-145720300D02*
X76875200Y-146608400D01*
X77763300Y-144845600D02*
X77763300Y-145720300D01*
X78572200Y-144036700D02*
X77763300Y-144845600D01*
X78940000Y-144036700D02*
X78572200Y-144036700D01*
X45920000Y-142860000D02*
X45920000Y-141683300D01*
X54780000Y-114198600D02*
X54780000Y-111220000D01*
X45920000Y-123058600D02*
X54780000Y-114198600D01*
X45920000Y-141683300D02*
X45920000Y-123058600D01*
X40041800Y-128858500D02*
X40041800Y-138867300D01*
X36698300Y-125515000D02*
X40041800Y-128858500D01*
X39976600Y-120905000D02*
X36032600Y-124849000D01*
X39976600Y-112928400D02*
X39976600Y-120905000D01*
X40724800Y-112180200D02*
X39976600Y-112928400D01*
X40724800Y-104955200D02*
X40724800Y-112180200D01*
X42080000Y-103600000D02*
X40724800Y-104955200D01*
X40840000Y-142860000D02*
X40840000Y-141683300D01*
X43155700Y-117764300D02*
X49700000Y-111220000D01*
X43155700Y-124431800D02*
X43155700Y-117764300D01*
X40840000Y-126747500D02*
X43155700Y-124431800D01*
X40840000Y-141683300D02*
X40840000Y-126747500D01*
X43380000Y-142860000D02*
X43380000Y-141683300D01*
X52240000Y-115996400D02*
X52240000Y-111220000D01*
X45174600Y-123061800D02*
X52240000Y-115996400D01*
X45174600Y-139888700D02*
X45174600Y-123061800D01*
X43380000Y-141683300D02*
X45174600Y-139888700D01*
X84470200Y-137053500D02*
X89100000Y-141683300D01*
X84470200Y-112802700D02*
X84470200Y-137053500D01*
X83424100Y-111756600D02*
X84470200Y-112802700D01*
X83424100Y-111324800D02*
X83424100Y-111756600D01*
X81141700Y-109042400D02*
X83424100Y-111324800D01*
X81141700Y-105741500D02*
X81141700Y-109042400D01*
X80270200Y-104870000D02*
X81141700Y-105741500D01*
X80068000Y-104870000D02*
X80270200Y-104870000D01*
X78910000Y-103712000D02*
X80068000Y-104870000D01*
X78910000Y-102330000D02*
X78910000Y-103712000D01*
X77640000Y-101060000D02*
X78910000Y-102330000D01*
X89100000Y-142860000D02*
X89100000Y-141683300D01*
X109420000Y-142860000D02*
X108243300Y-142860000D01*
X108243300Y-143227800D02*
X108243300Y-142860000D01*
X107434400Y-144036700D02*
X108243300Y-143227800D01*
X106558900Y-144036700D02*
X107434400Y-144036700D01*
X105642800Y-144952800D02*
X106558900Y-144036700D01*
X105642800Y-145777800D02*
X105642800Y-144952800D01*
X104830500Y-146590100D02*
X105642800Y-145777800D01*
X103840500Y-146590100D02*
X104830500Y-146590100D01*
X103070000Y-145819600D02*
X103840500Y-146590100D01*
X103070000Y-144991100D02*
X103070000Y-145819600D01*
X102156200Y-144077300D02*
X103070000Y-144991100D01*
X101348500Y-144077300D02*
X102156200Y-144077300D01*
X100530000Y-143258800D02*
X101348500Y-144077300D01*
X100530000Y-140403800D02*
X100530000Y-143258800D01*
X92033600Y-131907400D02*
X100530000Y-140403800D01*
X92033600Y-116554900D02*
X92033600Y-131907400D01*
X87508700Y-112030000D02*
X92033600Y-116554900D01*
X86652900Y-112030000D02*
X87508700Y-112030000D01*
X84132000Y-109509100D02*
X86652900Y-112030000D01*
X84132000Y-107151100D02*
X84132000Y-109509100D01*
X84131900Y-107151100D02*
X84132000Y-107151100D01*
X83413200Y-106432400D02*
X84131900Y-107151100D01*
X83413200Y-101753200D02*
X83413200Y-106432400D01*
X80180000Y-98520000D02*
X83413200Y-101753200D01*
X99260000Y-142860000D02*
X98083300Y-142860000D01*
X98083300Y-143227700D02*
X98083300Y-142860000D01*
X97235700Y-144075300D02*
X98083300Y-143227700D01*
X91190500Y-144075300D02*
X97235700Y-144075300D01*
X90445700Y-143330500D02*
X91190500Y-144075300D01*
X90445700Y-140096500D02*
X90445700Y-143330500D01*
X85155400Y-134806200D02*
X90445700Y-140096500D01*
X85155400Y-112738100D02*
X85155400Y-134806200D01*
X83875800Y-111458500D02*
X85155400Y-112738100D01*
X83875800Y-111062100D02*
X83875800Y-111458500D01*
X82509800Y-109696100D02*
X83875800Y-111062100D01*
X82509800Y-103389800D02*
X82509800Y-109696100D01*
X80180000Y-101060000D02*
X82509800Y-103389800D01*
X38300000Y-142860000D02*
X38300000Y-141683300D01*
X35569300Y-110110700D02*
X37000000Y-108680000D01*
X35569300Y-138952600D02*
X35569300Y-110110700D01*
X38300000Y-141683300D02*
X35569300Y-138952600D01*
X46163000Y-101060000D02*
X42080000Y-101060000D01*
X53252400Y-93970600D02*
X46163000Y-101060000D01*
X71368400Y-93970600D02*
X53252400Y-93970600D01*
X72943200Y-92395800D02*
X71368400Y-93970600D01*
X74981500Y-92395800D02*
X72943200Y-92395800D01*
X76509700Y-90867600D02*
X74981500Y-92395800D01*
X76509700Y-90635700D02*
X76509700Y-90867600D01*
X77221200Y-89924200D02*
X76509700Y-90635700D01*
X78083100Y-89924200D02*
X77221200Y-89924200D01*
X78910000Y-90751100D02*
X78083100Y-89924200D01*
X78910000Y-91026600D02*
X78910000Y-90751100D01*
X79848200Y-91964800D02*
X78910000Y-91026600D01*
X80726800Y-91964800D02*
X79848200Y-91964800D01*
X85552000Y-96790000D02*
X80726800Y-91964800D01*
X87512000Y-96790000D02*
X85552000Y-96790000D01*
X101550000Y-110828000D02*
X87512000Y-96790000D01*
X101550000Y-117560000D02*
X101550000Y-110828000D01*
X114500000Y-130510000D02*
X101550000Y-117560000D01*
X114500000Y-142860000D02*
X114500000Y-130510000D01*
X111960000Y-142860000D02*
X113136700Y-142860000D01*
X40689800Y-101060000D02*
X39540000Y-101060000D01*
X41959800Y-99790000D02*
X40689800Y-101060000D01*
X43426100Y-99790000D02*
X41959800Y-99790000D01*
X49898800Y-93317300D02*
X43426100Y-99790000D01*
X70344300Y-93317300D02*
X49898800Y-93317300D01*
X70693200Y-92968400D02*
X70344300Y-93317300D01*
X86068800Y-92270200D02*
X82815200Y-92270200D01*
X102001700Y-108203100D02*
X86068800Y-92270200D01*
X102001700Y-116721300D02*
X102001700Y-108203100D01*
X116128700Y-130848300D02*
X102001700Y-116721300D01*
X116885400Y-130848300D02*
X116128700Y-130848300D01*
X117082600Y-131045500D02*
X116885400Y-130848300D01*
X117082600Y-142465400D02*
X117082600Y-131045500D01*
X115511300Y-144036700D02*
X117082600Y-142465400D01*
X113504400Y-144036700D02*
X115511300Y-144036700D01*
X113136700Y-143669000D02*
X113504400Y-144036700D01*
X113136700Y-142860000D02*
X113136700Y-143669000D01*
X86560000Y-142860000D02*
X85383300Y-142860000D01*
X85383300Y-143225800D02*
X85383300Y-142860000D01*
X84533800Y-144075300D02*
X85383300Y-143225800D01*
X81005500Y-144075300D02*
X84533800Y-144075300D01*
X80263100Y-143332900D02*
X81005500Y-144075300D01*
X80263100Y-139665500D02*
X80263100Y-143332900D01*
X82949200Y-136979400D02*
X80263100Y-139665500D01*
X82949200Y-117687100D02*
X82949200Y-136979400D01*
X78670500Y-113408400D02*
X82949200Y-117687100D01*
X78670500Y-105810300D02*
X78670500Y-113408400D01*
X78038500Y-105178300D02*
X78670500Y-105810300D01*
X77858100Y-105178300D02*
X78038500Y-105178300D01*
X76596500Y-103916700D02*
X77858100Y-105178300D01*
X76596500Y-102556500D02*
X76596500Y-103916700D01*
X75100000Y-101060000D02*
X76596500Y-102556500D01*
X101800000Y-128169300D02*
X101800000Y-142860000D01*
X92538900Y-118908200D02*
X101800000Y-128169300D01*
X92538900Y-114488300D02*
X92538900Y-118908200D01*
X87540600Y-109490000D02*
X92538900Y-114488300D01*
X86631700Y-109490000D02*
X87540600Y-109490000D01*
X85626600Y-108484900D02*
X86631700Y-109490000D01*
X85626600Y-107688900D02*
X85626600Y-108484900D01*
X84089900Y-106152200D02*
X85626600Y-107688900D01*
X74614100Y-140929200D02*
X73860000Y-141683300D01*
X74614100Y-113274100D02*
X74614100Y-140929200D01*
X73838600Y-112498600D02*
X74614100Y-113274100D01*
X73838600Y-107418600D02*
X73838600Y-112498600D01*
X72560000Y-106140000D02*
X73838600Y-107418600D01*
X73860000Y-142860000D02*
X73860000Y-141683300D01*
X59351400Y-116654000D02*
X59351400Y-120574200D01*
X62400000Y-113605400D02*
X59351400Y-116654000D01*
X62400000Y-111220000D02*
X62400000Y-113605400D01*
X35760000Y-142860000D02*
X36936700Y-142860000D01*
X47274200Y-134952800D02*
X50767500Y-131459500D01*
X47274200Y-143206600D02*
X47274200Y-134952800D01*
X46403300Y-144077500D02*
X47274200Y-143206600D01*
X37786500Y-144077500D02*
X46403300Y-144077500D01*
X36936700Y-143227700D02*
X37786500Y-144077500D01*
X36936700Y-142860000D02*
X36936700Y-143227700D01*
X106880000Y-142860000D02*
X105703300Y-142860000D01*
X105703300Y-143227700D02*
X105703300Y-142860000D01*
X104853500Y-144077500D02*
X105703300Y-143227700D01*
X103856700Y-144077500D02*
X104853500Y-144077500D01*
X103070000Y-143290800D02*
X103856700Y-144077500D01*
X103070000Y-126443100D02*
X103070000Y-143290800D01*
X93101600Y-116474700D02*
X103070000Y-126443100D01*
X93101600Y-112488300D02*
X93101600Y-116474700D01*
X87565200Y-106951900D02*
X93101600Y-112488300D01*
X86701500Y-106951900D02*
X87565200Y-106951900D01*
X85453300Y-105703700D02*
X86701500Y-106951900D01*
X85453300Y-101253300D02*
X85453300Y-105703700D01*
X80180000Y-95980000D02*
X85453300Y-101253300D01*
X103915000Y-141258300D02*
X104340000Y-141683300D01*
X103915000Y-123956000D02*
X103915000Y-141258300D01*
X104340000Y-142860000D02*
X104340000Y-141683300D01*
X79156600Y-92416600D02*
X77640000Y-90900000D01*
X80528200Y-92416600D02*
X79156600Y-92416600D01*
X82462700Y-94351100D02*
X80528200Y-92416600D01*
X82462700Y-95127500D02*
X82462700Y-94351100D01*
X86665200Y-99330000D02*
X82462700Y-95127500D01*
X87496100Y-99330000D02*
X86665200Y-99330000D01*
X98943900Y-110777800D02*
X87496100Y-99330000D01*
X98943900Y-118348000D02*
X98943900Y-110777800D01*
X81480000Y-142860000D02*
X81480000Y-141683300D01*
X83400900Y-139762400D02*
X81480000Y-141683300D01*
X83400900Y-113857000D02*
X83400900Y-139762400D01*
X82361600Y-112817700D02*
X83400900Y-113857000D01*
X82361600Y-112020500D02*
X82361600Y-112817700D01*
X80131800Y-109790700D02*
X82361600Y-112020500D01*
X79905500Y-109790700D02*
X80131800Y-109790700D01*
X79171000Y-109056200D02*
X79905500Y-109790700D01*
X79171000Y-107149000D02*
X79171000Y-109056200D01*
X80180000Y-106140000D02*
X79171000Y-107149000D01*
X76400000Y-142860000D02*
X76400000Y-141683300D01*
X79770000Y-138313300D02*
X76400000Y-141683300D01*
X79770000Y-129878800D02*
X79770000Y-138313300D01*
X81992500Y-127656300D02*
X79770000Y-129878800D01*
X81992500Y-123459300D02*
X81992500Y-127656300D01*
X79681500Y-121148300D02*
X81992500Y-123459300D01*
X79681500Y-115823700D02*
X79681500Y-121148300D01*
X76226600Y-112368800D02*
X79681500Y-115823700D01*
X76226600Y-107266600D02*
X76226600Y-112368800D01*
X75100000Y-106140000D02*
X76226600Y-107266600D01*
X84020000Y-142860000D02*
X84020000Y-141683300D01*
X84018500Y-141681800D02*
X84020000Y-141683300D01*
X84018500Y-113308000D02*
X84018500Y-141681800D01*
X82813300Y-112102800D02*
X84018500Y-113308000D01*
X82813300Y-111464000D02*
X82813300Y-112102800D01*
X80180000Y-108830700D02*
X82813300Y-111464000D01*
X80180000Y-108680000D02*
X80180000Y-108830700D01*
X40810000Y-76930000D02*
X42080000Y-78200000D01*
X39376600Y-76930000D02*
X40810000Y-76930000D01*
X38270000Y-75823400D02*
X39376600Y-76930000D01*
X38270000Y-75557800D02*
X38270000Y-75823400D01*
X37141500Y-74429300D02*
X38270000Y-75557800D01*
X31566000Y-74429300D02*
X37141500Y-74429300D01*
X26276700Y-69140000D02*
X31566000Y-74429300D01*
X25100000Y-69140000D02*
X26276700Y-69140000D01*
X25100000Y-127560000D02*
X25100000Y-126383300D01*
X24732300Y-126383300D02*
X25100000Y-126383300D01*
X22907800Y-124558800D02*
X24732300Y-126383300D01*
X22907800Y-105135600D02*
X22907800Y-124558800D01*
X24613400Y-103430000D02*
X22907800Y-105135600D01*
X25649900Y-103430000D02*
X24613400Y-103430000D01*
X36601600Y-92478300D02*
X25649900Y-103430000D01*
X42580200Y-92478300D02*
X36601600Y-92478300D01*
X55899800Y-79158700D02*
X42580200Y-92478300D01*
X68198400Y-79158700D02*
X55899800Y-79158700D01*
X70149300Y-77207800D02*
X68198400Y-79158700D01*
X80581600Y-77207800D02*
X70149300Y-77207800D01*
X81192700Y-77818900D02*
X80581600Y-77207800D01*
X81192700Y-82267300D02*
X81192700Y-77818900D01*
X80180000Y-83280000D02*
X81192700Y-82267300D01*
X25467800Y-113683300D02*
X25100000Y-113683300D01*
X37000000Y-102151100D02*
X25467800Y-113683300D01*
X37000000Y-101060000D02*
X37000000Y-102151100D01*
X25100000Y-114860000D02*
X25100000Y-113683300D01*
X24732200Y-134003300D02*
X25100000Y-134003300D01*
X23923300Y-133194400D02*
X24732200Y-134003300D01*
X23923300Y-129524500D02*
X23923300Y-133194400D01*
X24617800Y-128830000D02*
X23923300Y-129524500D01*
X25508900Y-128830000D02*
X24617800Y-128830000D01*
X26324000Y-128014900D02*
X25508900Y-128830000D01*
X26324000Y-116880100D02*
X26324000Y-128014900D01*
X25573900Y-116130000D02*
X26324000Y-116880100D01*
X24672200Y-116130000D02*
X25573900Y-116130000D01*
X23880500Y-115338300D02*
X24672200Y-116130000D01*
X23880500Y-109296600D02*
X23880500Y-115338300D01*
X24667100Y-108510000D02*
X23880500Y-109296600D01*
X25621600Y-108510000D02*
X24667100Y-108510000D01*
X36690300Y-97441300D02*
X25621600Y-108510000D01*
X44972000Y-97441300D02*
X36690300Y-97441300D01*
X51695100Y-90718200D02*
X44972000Y-97441300D01*
X71286200Y-90718200D02*
X51695100Y-90718200D01*
X72682700Y-89321700D02*
X71286200Y-90718200D01*
X75498500Y-89321700D02*
X72682700Y-89321700D01*
X76460200Y-88360000D02*
X75498500Y-89321700D01*
X77640000Y-88360000D02*
X76460200Y-88360000D01*
X25100000Y-135180000D02*
X25100000Y-134003300D01*
X29916700Y-75660000D02*
X26276700Y-79300000D01*
X37000000Y-75660000D02*
X29916700Y-75660000D01*
X25100000Y-79300000D02*
X26276700Y-79300000D01*
X26276700Y-101623300D02*
X26276700Y-102160000D01*
X37000000Y-90900000D02*
X26276700Y-101623300D01*
X25100000Y-102160000D02*
X26276700Y-102160000D01*
X40810000Y-99790000D02*
X42080000Y-98520000D01*
X36881600Y-99790000D02*
X40810000Y-99790000D01*
X25528300Y-111143300D02*
X36881600Y-99790000D01*
X25100000Y-111143300D02*
X25528300Y-111143300D01*
X25100000Y-112320000D02*
X25100000Y-111143300D01*
X25100000Y-140260000D02*
X25100000Y-139083300D01*
X79197700Y-94422300D02*
X80180000Y-93440000D01*
X54326500Y-94422300D02*
X79197700Y-94422300D01*
X46418800Y-102330000D02*
X54326500Y-94422300D01*
X39428000Y-102330000D02*
X46418800Y-102330000D01*
X38270000Y-103488000D02*
X39428000Y-102330000D01*
X38270000Y-103756000D02*
X38270000Y-103488000D01*
X36976400Y-105049600D02*
X38270000Y-103756000D01*
X36713000Y-105049600D02*
X36976400Y-105049600D01*
X33499000Y-108263600D02*
X36713000Y-105049600D01*
X33499000Y-131052000D02*
X33499000Y-108263600D01*
X25467700Y-139083300D02*
X33499000Y-131052000D01*
X25100000Y-139083300D02*
X25467700Y-139083300D01*
X85447700Y-90900000D02*
X80180000Y-90900000D01*
X112073300Y-117525600D02*
X85447700Y-90900000D01*
X112073300Y-121135400D02*
X112073300Y-117525600D01*
X117541700Y-126603800D02*
X112073300Y-121135400D01*
X117541700Y-144094200D02*
X117541700Y-126603800D01*
X114561600Y-147074300D02*
X117541700Y-144094200D01*
X29722300Y-147074300D02*
X114561600Y-147074300D01*
X23923300Y-141275300D02*
X29722300Y-147074300D01*
X23923300Y-138896700D02*
X23923300Y-141275300D01*
X25100000Y-137720000D02*
X23923300Y-138896700D01*
X32456700Y-78200000D02*
X26276700Y-84380000D01*
X37000000Y-78200000D02*
X32456700Y-78200000D01*
X25100000Y-84380000D02*
X26276700Y-84380000D01*
X34996700Y-85820000D02*
X26276700Y-94540000D01*
X37000000Y-85820000D02*
X34996700Y-85820000D01*
X25100000Y-94540000D02*
X26276700Y-94540000D01*
X25100000Y-119940000D02*
X25100000Y-118763300D01*
X24732300Y-118763300D02*
X25100000Y-118763300D01*
X23384400Y-117415400D02*
X24732300Y-118763300D01*
X23384400Y-107284500D02*
X23384400Y-117415400D01*
X24698900Y-105970000D02*
X23384400Y-107284500D01*
X25584500Y-105970000D02*
X24698900Y-105970000D01*
X36702600Y-94851900D02*
X25584500Y-105970000D01*
X43696100Y-94851900D02*
X36702600Y-94851900D01*
X58937600Y-79610400D02*
X43696100Y-94851900D01*
X78769600Y-79610400D02*
X58937600Y-79610400D01*
X80180000Y-78200000D02*
X78769600Y-79610400D01*
X34066700Y-71850000D02*
X26276700Y-64060000D01*
X37156000Y-71850000D02*
X34066700Y-71850000D01*
X38270000Y-72964000D02*
X37156000Y-71850000D01*
X38270000Y-73232000D02*
X38270000Y-72964000D01*
X39428000Y-74390000D02*
X38270000Y-73232000D01*
X40810000Y-74390000D02*
X39428000Y-74390000D01*
X42080000Y-75660000D02*
X40810000Y-74390000D01*
X25100000Y-64060000D02*
X26276700Y-64060000D01*
X32456700Y-80740000D02*
X26276700Y-86920000D01*
X37000000Y-80740000D02*
X32456700Y-80740000D01*
X25100000Y-86920000D02*
X26276700Y-86920000D01*
X25100000Y-132640000D02*
X25100000Y-131463300D01*
X32822300Y-124108700D02*
X32822300Y-108957600D01*
X25467700Y-131463300D02*
X32822300Y-124108700D01*
X25100000Y-131463300D02*
X25467700Y-131463300D01*
X44620000Y-60656700D02*
X48025000Y-57251700D01*
X44620000Y-68040000D02*
X44620000Y-60656700D01*
X48025000Y-56075000D02*
X48025000Y-57251700D01*
X37865000Y-56075000D02*
X37865000Y-57251700D01*
X41035100Y-60421800D02*
X37865000Y-57251700D01*
X41035100Y-69535100D02*
X41035100Y-60421800D01*
X42080000Y-70580000D02*
X41035100Y-69535100D01*
X105268300Y-56442700D02*
X105268300Y-56075000D01*
X88591000Y-73120000D02*
X105268300Y-56442700D01*
X80180000Y-73120000D02*
X88591000Y-73120000D01*
X106445000Y-56075000D02*
X105268300Y-56075000D01*
X49700000Y-60656700D02*
X53105000Y-57251700D01*
X49700000Y-68040000D02*
X49700000Y-60656700D01*
X53105000Y-56075000D02*
X53105000Y-57251700D01*
X112888300Y-56442700D02*
X112888300Y-56075000D01*
X93671000Y-75660000D02*
X112888300Y-56442700D01*
X80180000Y-75660000D02*
X93671000Y-75660000D01*
X114065000Y-56075000D02*
X112888300Y-56075000D01*
X88428300Y-57251700D02*
X88665000Y-57251700D01*
X77640000Y-68040000D02*
X88428300Y-57251700D01*
X88665000Y-56075000D02*
X88665000Y-57251700D01*
X54780000Y-63196700D02*
X60725000Y-57251700D01*
X54780000Y-68040000D02*
X54780000Y-63196700D01*
X60725000Y-56075000D02*
X60725000Y-57251700D01*
X70885000Y-62095000D02*
X70885000Y-56075000D01*
X64940000Y-68040000D02*
X70885000Y-62095000D01*
X78505000Y-59555000D02*
X78505000Y-56075000D01*
X70020000Y-68040000D02*
X78505000Y-59555000D01*
X90028300Y-56786200D02*
X90028300Y-56075000D01*
X78759700Y-68054800D02*
X90028300Y-56786200D01*
X78759700Y-68302300D02*
X78759700Y-68054800D01*
X77752000Y-69310000D02*
X78759700Y-68302300D01*
X76370000Y-69310000D02*
X77752000Y-69310000D01*
X75100000Y-70580000D02*
X76370000Y-69310000D01*
X91205000Y-56075000D02*
X90028300Y-56075000D01*
X43350000Y-60196700D02*
X40405000Y-57251700D01*
X43350000Y-71850000D02*
X43350000Y-60196700D01*
X44620000Y-73120000D02*
X43350000Y-71850000D01*
X40405000Y-56075000D02*
X40405000Y-57251700D01*
X76370000Y-74390000D02*
X75100000Y-75660000D01*
X77796000Y-74390000D02*
X76370000Y-74390000D01*
X78910000Y-73276000D02*
X77796000Y-74390000D01*
X78910000Y-73008000D02*
X78910000Y-73276000D01*
X80068000Y-71850000D02*
X78910000Y-73008000D01*
X82627900Y-71850000D02*
X80068000Y-71850000D01*
X97226200Y-57251700D02*
X82627900Y-71850000D01*
X101919400Y-57251700D02*
X97226200Y-57251700D01*
X102728300Y-56442800D02*
X101919400Y-57251700D01*
X102728300Y-56075000D02*
X102728300Y-56442800D01*
X103905000Y-56075000D02*
X102728300Y-56075000D01*
X83348300Y-57251700D02*
X83585000Y-57251700D01*
X72560000Y-68040000D02*
X83348300Y-57251700D01*
X83585000Y-56075000D02*
X83585000Y-57251700D01*
X55645000Y-56075000D02*
X55645000Y-57251700D01*
X53556700Y-59340000D02*
X55645000Y-57251700D01*
X53556700Y-69263300D02*
X53556700Y-59340000D01*
X52240000Y-70580000D02*
X53556700Y-69263300D01*
X40542500Y-71582500D02*
X42080000Y-73120000D01*
X40542500Y-62469200D02*
X40542500Y-71582500D01*
X35325000Y-57251700D02*
X40542500Y-62469200D01*
X35325000Y-56075000D02*
X35325000Y-57251700D01*
X85888300Y-57251700D02*
X86125000Y-57251700D01*
X75100000Y-68040000D02*
X85888300Y-57251700D01*
X86125000Y-56075000D02*
X86125000Y-57251700D01*
X50565000Y-56075000D02*
X50565000Y-57251700D01*
X47160000Y-60656700D02*
X50565000Y-57251700D01*
X47160000Y-68040000D02*
X47160000Y-60656700D01*
X73425000Y-62095000D02*
X73425000Y-56075000D01*
X67480000Y-68040000D02*
X73425000Y-62095000D01*
D18*
X45900000Y-120900000D02*
X45800000Y-120800000D01*
D17*
X98943900Y-118348000D02*
X98943900Y-118985000D01*
X98943900Y-118985000D02*
X103915000Y-123956000D01*
X36698300Y-125515000D02*
X36032600Y-124849000D01*
X39145000Y-115547000D02*
X38326700Y-114729000D01*
M02*
